<svg viewBox="0 0 474 309" xmlns="http://www.w3.org/2000/svg">
  <path fill-rule="evenodd" clip-rule="evenodd" d="M106.066 128.617c-17.964 17.964-17.964 47.09 0 65.054l114.551 114.551 22.628-22.627-109.602-109.602c-8.201-8.201-8.201-21.497 0-29.698s21.498-8.201 29.699 0l109.601 109.602 22.628-22.628-114.552-114.551c-17.964-17.964-47.089-17.964-65.054 0l-9.899 9.899zM210.718 23.965c-17.964 17.965-17.964 47.09 0 65.054l82.024 82.025c17.964 17.964 47.09 17.964 65.054 0l9.9-9.9c17.964-17.964 17.964-47.089 0-65.054l-82.025-82.024c-17.964-17.964-47.09-17.964-65.054 0l-9.899 9.9zm27.577 17.678c-8.201 8.201-8.201 21.498 0 29.699l72.125 72.125c8.201 8.201 21.497 8.201 29.698 0s8.201-21.498 0-29.699l-72.125-72.125c-8.201-8.2-21.497-8.2-29.698 0z" fill="#FE5F40"/>
  <path fill-rule="evenodd" clip-rule="evenodd" d="M158.392 76.291c-17.964 17.965-17.964 47.09 0 65.054l16.263 16.264 22.628-22.628-11.314-11.313c-8.201-8.201-8.201-21.498 0-29.699 8.201-8.2 21.498-8.2 29.699 0l11.313 11.314 22.628-22.628-16.264-16.263c-17.964-17.964-47.089-17.964-65.054 0l-9.899 9.9z" fill="#FE5F40"/>
  <path fill="#FEC84D" d="M0 87.605l22.627-22.627 220.618 220.617-22.628 22.627z"/>
  <path fill="#00C0BB" d="M267.286 40.936l22.627-22.627 183.848 183.847-22.627 22.628z"/>
  <path fill-rule="evenodd" clip-rule="evenodd" d="M346.363 179.409a45.972 45.972 0 0 0 11.433-8.365l9.9-9.9c17.964-17.964 17.964-47.089 0-65.054l-16.264-16.263-22.627 22.627 11.313 11.314c8.201 8.201 8.201 21.498 0 29.699s-21.497 8.201-29.698 0l35.943 35.942z" fill="#00C0BB"/>
</svg>
